# xmcd
# Track frame offsets:
# 150
# 16270
# 32212
# 48500
# 64663
# 79645
# 95041
# 110845
# 126945
# 143681
# 160649
# 174738
# 189657
# 204715
# 221607
# 236064
# 252605
#
# Disc length: 3591 seconds
# Revision: 0
# Processed by: cddbd v1.5.2PL0 Copyright (c) Steve Scherf et al.
# Submitted via: VisiTrax 2.11.2.271 - For more info visit www.synapsa.com
#
DISCID=fb0e0511
DTITLE=Various Artist - Promo Country May 2014
DYEAR=2014
DGENRE=Country
TTITLE0=Rachel Holder - Shining Now
TTITLE1=Austin Webb - Raise Em Up
TTITLE2=Craig Campbell - Love Is You
TTITLE3=Lee Brice - I Don't Dance
TTITLE4=Kellie Pickler - Closer To Nowhere
TTITLE5=Brothers Osbourne - Rum
TTITLE6=Love And Theft - Night That You'll Never Forget
TTITLE7=Cassadee Pope - I Wish I Could Break Your Heart
TTITLE8=Luke Bryan - Play It Again
TTITLE9=Cole Swindell - Hope You Get Lonely Tonight
TTITLE10=Kelleigh Bannen - Almost Famous
TTITLE11=Parmalee - Carolina
TTITLE12=Jon Pardi - What I Can't Put Down
TTITLE13=David Nail - Kiss You Tonight
TTITLE14=Kacey Musgraves - Keep It To Yourself
TTITLE15=Big and Rich - Look At You
TTITLE16=Band Perry - Chainsaw
EXTD=
EXTT0=
EXTT1=
EXTT2=
EXTT3=
EXTT4=
EXTT5=
EXTT6=
EXTT7=
EXTT8=
EXTT9=
EXTT10=
EXTT11=
EXTT12=
EXTT13=
EXTT14=
EXTT15=
EXTT16=
PLAYORDER=
